<svg xmlns="http://www.w3.org/2000/svg" fill="none" viewBox="0 0 24 24" id="Cloudflare--Streamline-Svg-Logos" height="24" width="24">
  <desc>
    Cloudflare Streamline Icon: https://streamlinehq.com
  </desc>
  <path fill="#000000" d="M10.10125 12.447725h0.34445v0.95025h0.601075v0.304925H10.10125v-1.255175Zm1.301725 0.63115v-0.0037c0 -0.36055 0.287175 -0.652575 0.67055 -0.652575 0.38325 0 0.666875 0.2889 0.666875 0.6489v0.003675c0 0.36045 -0.2872 0.6526 -0.67055 0.6526 -0.383375 0 -0.667 -0.288575 -0.667 -0.6489h0.000125Zm0.9863 0v-0.0037c0 -0.1812 -0.12935 -0.3389 -0.319425 -0.3389 -0.190075 0 -0.313925 0.154025 -0.313925 0.335225v0.003675c0 0.1811 0.12925 0.338925 0.3176 0.338925 0.188225 0 0.31575 -0.15415 0.31575 -0.335225Zm0.7724 0.0735v-0.7042h0.349375v0.6975c0 0.1811 0.0902 0.266925 0.228675 0.266925 0.13835 0 0.22865 -0.0826 0.22865 -0.258275v-0.7066h0.349275v0.69565c0 0.405375 -0.22865 0.58245 -0.581625 0.58245 -0.35295 0 -0.574825 -0.181225 -0.574825 -0.5737m1.68325 -0.704075h0.4791c0.443275 0 0.7005 0.258175 0.7005 0.62v0.003675c0 0.361725 -0.2609 0.630925 -0.70775 0.630925h-0.47185v-1.254925Zm0.48405 0.94645c0.205975 0 0.34215 -0.1146 0.34215 -0.31725v-0.003675c0 -0.2009 -0.136525 -0.317375 -0.34215 -0.317375h-0.1402v0.6383h0.1402Zm1.19585 -0.946775h0.9931v0.305025h-0.649225v0.213125h0.587025v0.28855h-0.587025v0.448475h-0.343875v-1.255175Zm1.471875 0h0.344325v0.95025h0.6012v0.304925h-0.945525v-1.255175Zm1.844625 -0.008875h0.331525l0.52865 1.2638h-0.368875l-0.09075 -0.22415h-0.4791l-0.088475 0.22415H19.31175l0.52865 -1.2638h0.00045Zm0.3017 0.76905 -0.138475 -0.356775 -0.140175 0.356775h0.27865Zm1.00185 -0.75985h0.58705c0.189725 0 0.321275 0.050475 0.404225 0.136175 0.07315 0.071525 0.1099 0.16875 0.1099 0.292125v0.0037c0 0.191675 -0.101275 0.319075 -0.2555 0.3852l0.296275 0.4374h-0.397425l-0.249975 -0.38015h-0.150675v0.38015h-0.344325v-1.254925l0.00045 0.00045v-0.000125Zm0.571275 0.602475c0.117025 0 0.184525 -0.05725 0.184525 -0.1486v-0.003575c0 -0.0986 -0.070725 -0.1486 -0.186375 -0.1486h-0.2251v0.30135h0.227275l-0.000325 -0.00045v-0.000125Zm1.0265 -0.6028h0.99865v0.2958h-0.6579v0.18985h0.59615v0.274625h-0.59615v0.199075h0.667v0.295825h-1.00775v-1.255175Zm-13.39465 0.77825c-0.04815 0.110125 -0.14975 0.188125 -0.284525 0.188125 -0.187775 0 -0.3175 -0.157825 -0.3175 -0.338925v-0.0038c0 -0.1812 0.126025 -0.3352 0.313925 -0.3352 0.141575 0 0.2495 0.088 0.29535 0.20815h0.362525c-0.058175 -0.298475 -0.3176 -0.52185 -0.65465 -0.52185 -0.382925 0 -0.67055 0.29215 -0.67055 0.6526v0.003675c0 0.36045 0.2835 0.6489 0.666975 0.6489 0.3275 0 0.583825 -0.214725 0.651425 -0.50225h-0.363425l0.00045 0.000475v0.0001Z" stroke-width="0.25"></path>
  <path fill="#fbad41" d="M6.319475 11.7729c-0.025325 0 -0.050325 0.0009 -0.075325 0.001725 -0.00405 0.0002 -0.008025 0.00115 -0.01175 0.00275 -0.01345 0.004575 -0.023675 0.015625 -0.0272 0.029375l-0.107125 0.374275c-0.0462 0.160925 -0.029025 0.309525 0.048625 0.418625 0.071175 0.1009 0.1896 0.160125 0.333375 0.167025l0.58115 0.03525c0.017275 0.000925 0.03225 0.009225 0.04135 0.022925 0.009675 0.01485 0.01185 0.033325 0.005875 0.05 -0.00955 0.0273 -0.0342 0.0465 -0.063 0.049075l-0.60385 0.03525c-0.3281 0.0152 -0.68105 0.282925 -0.804875 0.6094l-0.04355 0.115175c-0.0038 0.0097 -0.0027 0.020625 0.002975 0.02935 0.00565 0.008725 0.0152 0.0142 0.0256 0.014675h2.07975c0.02485 0.0001 0.0467 -0.0164 0.05345 -0.040325 0.036925 -0.132775 0.055525 -0.269975 0.0553 -0.4078 0 -0.831725 -0.666875 -1.50585 -1.48985 -1.50585" stroke-width="0.25"></path>
  <path fill="#f6821f" d="m5.4116 13.679425 0.038475 -0.13535c0.0463 -0.160925 0.029125 -0.309525 -0.0484 -0.418625 -0.071425 -0.100925 -0.189725 -0.160125 -0.3336 -0.167025l-2.726115 -0.03525c-0.0172 -0.000325 -0.0332125 -0.00885 -0.0430825 -0.022925 -0.0096975 -0.014825 -0.0119125 -0.033325 -0.00599 -0.05 0.0096425 -0.0275 0.03456 -0.046725 0.0635875 -0.049075l2.751575 -0.03525c0.3267 -0.0151 0.67965 -0.282925 0.8035 -0.6094l0.1569 -0.4147c0.006325 -0.017575 0.007975 -0.03655 0.0046 -0.05495 -0.1788 -0.8089 -0.893925 -1.414725 -1.7489 -1.414725 -0.788175 0 -1.4569 0.514 -1.69685 1.228575 -0.16155 -0.12285 -0.3638775 -0.179475 -0.5657275 -0.158275 -0.3778425 0.038 -0.68196 0.3458 -0.7195125 0.7278 -0.009725 0.0954 -0.0027075 0.191775 0.020735 0.284775C0.7453425 12.37345 0.25 12.884675 0.25 13.512975c0 0.056775 0.0040325 0.112775 0.01221 0.167375 0.00337 0.0265 0.0259325 0.04635 0.052645 0.0463H5.349375c0.029125 -0.000475 0.05445 -0.020075 0.062225 -0.04815" stroke-width="0.25"></path>
</svg>