<svg xmlns="http://www.w3.org/2000/svg" fill="none" viewBox="0 0 24 24" id="Express--Streamline-Svg-Logos" height="24" width="24">
  <desc>
    Express Streamline Icon: https://streamlinehq.com
  </desc>
  <path fill="#222222" d="M0.402945 13.904175V11.288825H3.668325v-0.15295H0.402945v-2.38595H3.8748v-0.15295H0.25v5.46015h3.655375v-0.15295H0.402945Zm6.44663 -3.77775 -1.35355 1.781825 -1.322975 -1.781825h-0.19885l1.43005 1.896525 -1.5677 2.034175h0.18355l1.475925 -1.919475 1.48355 1.919475h0.191175l-1.575325 -2.034175 1.437675 -1.896525h-0.183525Zm0.780025 5.276625v-2.447125h0.0153c0.09175 0.356875 0.27275 0.643625 0.54295 0.8603 0.2702 0.216675 0.614325 0.325025 1.032375 0.325025 0.2702 0 0.509825 -0.054825 0.71885 -0.164425 0.209025 -0.1096 0.383625 -0.258725 0.523825 -0.447375 0.1402 -0.188625 0.247275 -0.40785 0.321175 -0.65765 0.073925 -0.249825 0.1109 -0.512375 0.1109 -0.787675 0 -0.2957 -0.03825 -0.56845 -0.1147 -0.81825 -0.076475 -0.2498 -0.187375 -0.466475 -0.332675 -0.650025 -0.1453 -0.183525 -0.321175 -0.326275 -0.52765 -0.428225 -0.206475 -0.101975 -0.439725 -0.15295 -0.699725 -0.15295 -0.198825 0 -0.383625 0.0293 -0.554425 0.087925 -0.1708 0.05865 -0.32245 0.141475 -0.455 0.24855 -0.132575 0.10705 -0.247275 0.233225 -0.34415 0.378525 -0.09685 0.1453 -0.170775 0.304625 -0.22175 0.477975h-0.0153v-1.101225h-0.15295v5.276625h0.15295Zm1.590625 -1.4071c-0.479225 0 -0.86415 -0.164425 -1.154725 -0.49325 -0.2906 -0.32885 -0.4359 -0.8017 -0.4359 -1.418575 0 -0.2549 0.035675 -0.497075 0.10705 -0.726475 0.071375 -0.229425 0.174625 -0.4308 0.309725 -0.60415 0.1351 -0.173325 0.30205 -0.310975 0.5009 -0.41295 0.198825 -0.10195 0.42315 -0.152925 0.67295 -0.152925 0.2549 0 0.47795 0.050975 0.669125 0.152925 0.1912 0.101975 0.349225 0.2409 0.47415 0.416775 0.1249 0.1759 0.2192 0.377275 0.282925 0.60415 0.06375 0.22685 0.0956 0.46775 0.0956 0.72265 0 0.229425 -0.0293 0.457575 -0.08795 0.684425 -0.058625 0.226875 -0.1491 0.4308 -0.271475 0.6118 -0.12235 0.180975 -0.279125 0.328825 -0.4703 0.443525 -0.191175 0.114725 -0.421875 0.172075 -0.692075 0.172075Zm2.51595 0.061175v-2.22535c0 -0.214125 0.030575 -0.42315 0.09175 -0.627075 0.0612 -0.203925 0.1555 -0.38365 0.28295 -0.539125 0.127475 -0.1555 0.289325 -0.27785 0.4856 -0.367075 0.1963 -0.089225 0.429525 -0.126175 0.699725 -0.110875v-0.15295c-0.2345 -0.0051 -0.4397 0.020375 -0.6156 0.076475 -0.175875 0.056075 -0.32755 0.13255 -0.455 0.2294 -0.12745 0.096875 -0.229425 0.2103 -0.3059 0.3403 -0.076475 0.130025 -0.13255 0.26895 -0.168225 0.416775h-0.0153v-0.9712h-0.15295v3.9307h0.15295Zm1.751225 -1.93475h3.2883c0.0102 -0.2702 -0.01655 -0.530225 -0.0803 -0.780025 -0.063725 -0.249825 -0.165675 -0.471575 -0.305875 -0.665325 -0.1402 -0.193725 -0.321175 -0.3492 -0.54295 -0.466475 -0.221775 -0.11725 -0.4856 -0.175875 -0.7915 -0.175875 -0.219225 0 -0.43335 0.045875 -0.642375 0.13765 -0.209025 0.09175 -0.39255 0.225575 -0.5506 0.401475 -0.15805 0.175875 -0.2855 0.391275 -0.38235 0.6462 -0.096875 0.2549 -0.1453 0.5455 -0.1453 0.871775 0 0.2906 0.033125 0.562075 0.0994 0.814425 0.066275 0.252375 0.16825 0.4716 0.3059 0.657675s0.3148 0.3301 0.531475 0.432075c0.216675 0.10195 0.47795 0.1504 0.78385 0.1453 0.44865 0 0.8259 -0.126175 1.1318 -0.37855 0.305875 -0.25235 0.486875 -0.60795 0.54295 -1.0668h-0.15295c-0.066275 0.43335 -0.235775 0.75835 -0.50855 0.975025 -0.27275 0.216675 -0.6156 0.325025 -1.02855 0.325025 -0.2804 0 -0.51745 -0.04845 -0.711175 -0.1453 -0.19375 -0.096875 -0.351775 -0.229425 -0.47415 -0.39765 -0.12235 -0.16825 -0.21285 -0.3658 -0.271475 -0.592675 -0.058625 -0.226875 -0.090475 -0.47285 -0.095575 -0.73795Zm3.135375 -0.15295H13.4874c0.015275 -0.2753 0.066275 -0.522575 0.152925 -0.741775 0.086675 -0.219225 0.2001 -0.4066 0.340325 -0.562075 0.1402 -0.1555 0.303325 -0.274025 0.4894 -0.3556 0.1861 -0.081575 0.3862 -0.12235 0.600325 -0.12235 0.2549 0 0.479225 0.04715 0.67295 0.14145 0.193725 0.094325 0.3556 0.22305 0.4856 0.3862 0.13 0.16315 0.22815 0.35305 0.294425 0.569725 0.066275 0.216675 0.099425 0.4448 0.099425 0.684425Zm3.32655 -0.6806h0.152925c0 -0.43845 -0.12745 -0.757075 -0.38235 -0.955925 -0.2549 -0.198825 -0.601575 -0.298225 -1.040025 -0.298225 -0.244725 0 -0.4512 0.030575 -0.619425 0.09175 -0.16825 0.0612 -0.3059 0.1402 -0.41295 0.237075 -0.107075 0.096875 -0.18355 0.203925 -0.229425 0.321175 -0.045875 0.117275 -0.068825 0.229425 -0.068825 0.3365 0 0.2141 0.03825 0.3849 0.1147 0.51235 0.076475 0.12745 0.1963 0.226875 0.359425 0.29825 0.112175 0.050975 0.239625 0.09685 0.382375 0.13765 0.14275 0.040775 0.308425 0.084125 0.497075 0.13 0.168225 0.040775 0.333925 0.081575 0.49705 0.12235 0.16315 0.0408 0.307175 0.0956 0.432075 0.164425 0.1249 0.068825 0.226875 0.156775 0.3059 0.263825 0.079025 0.107075 0.118525 0.247275 0.118525 0.4206 0 0.16825 -0.0395 0.311 -0.118525 0.42825 -0.079025 0.11725 -0.179725 0.21285 -0.302075 0.286775 -0.12235 0.073925 -0.258725 0.12745 -0.409125 0.160575 -0.1504 0.03315 -0.296975 0.049725 -0.439725 0.049725 -0.463925 0 -0.819525 -0.10325 -1.066775 -0.309725 -0.247275 -0.206475 -0.3709 -0.531475 -0.3709 -0.975025h-0.15295c0 0.494525 0.133825 0.8565 0.401475 1.085925 0.267675 0.2294 0.66405 0.344125 1.18915 0.344125 0.16825 0 0.337775 -0.019125 0.50855 -0.057375 0.1708 -0.038225 0.323725 -0.100675 0.458825 -0.18735 0.135125 -0.086675 0.244725 -0.198825 0.32885 -0.336475 0.084125 -0.13765 0.126175 -0.3059 0.126175 -0.504725 0 -0.188625 -0.036975 -0.341575 -0.110875 -0.458825 -0.073925 -0.11725 -0.1708 -0.214125 -0.2906 -0.2906 -0.119825 -0.076475 -0.254925 -0.136375 -0.4053 -0.1797 -0.1504 -0.04335 -0.302075 -0.0854 -0.455025 -0.1262 -0.214125 -0.056075 -0.401475 -0.1045 -0.562075 -0.145275 -0.1606 -0.0408 -0.3097 -0.089225 -0.44735 -0.1453 -0.132575 -0.0561 -0.23835 -0.136375 -0.317375 -0.2409 -0.079025 -0.1045 -0.118525 -0.253625 -0.118525 -0.44735 0 -0.0357 0.0102 -0.099425 0.030575 -0.1912 0.0204 -0.09175 0.068825 -0.1848 0.1453 -0.279125 0.076475 -0.0943 0.19375 -0.178425 0.351775 -0.25235 0.15805 -0.073925 0.374725 -0.110875 0.650025 -0.110875 0.188625 0 0.3607 0.020375 0.516175 0.061175 0.1555 0.040775 0.289325 0.105775 0.4015 0.195 0.11215 0.089225 0.198825 0.20265 0.26 0.3403 0.061175 0.13765 0.091775 0.305875 0.091775 0.504725Zm3.540675 0h0.15295c0 -0.43845 -0.127475 -0.757075 -0.382375 -0.955925 -0.2549 -0.198825 -0.601575 -0.298225 -1.040025 -0.298225 -0.244725 0 -0.451175 0.030575 -0.619425 0.09175 -0.16825 0.0612 -0.3059 0.1402 -0.41295 0.237075 -0.107075 0.096875 -0.18355 0.203925 -0.229425 0.321175 -0.045875 0.117275 -0.068825 0.229425 -0.068825 0.3365 0 0.2141 0.03825 0.3849 0.1147 0.51235 0.076475 0.12745 0.1963 0.226875 0.359425 0.29825 0.112175 0.050975 0.239625 0.09685 0.382375 0.13765 0.14275 0.040775 0.308425 0.084125 0.497075 0.13 0.168225 0.040775 0.333925 0.081575 0.497075 0.12235 0.163125 0.0408 0.30715 0.0956 0.43205 0.164425 0.124925 0.068825 0.226875 0.156775 0.3059 0.263825 0.079025 0.107075 0.118525 0.247275 0.118525 0.4206 0 0.16825 -0.0395 0.311 -0.118525 0.42825 -0.079025 0.11725 -0.179725 0.21285 -0.302075 0.286775 -0.12235 0.073925 -0.258725 0.12745 -0.409125 0.160575 -0.1504 0.03315 -0.296975 0.049725 -0.439725 0.049725 -0.463925 0 -0.819525 -0.10325 -1.066775 -0.309725 -0.247275 -0.206475 -0.3709 -0.531475 -0.3709 -0.975025h-0.15295c0 0.494525 0.133825 0.8565 0.4015 1.085925 0.26765 0.2294 0.664025 0.344125 1.189125 0.344125 0.16825 0 0.337775 -0.019125 0.50855 -0.057375 0.1708 -0.038225 0.323725 -0.100675 0.45885 -0.18735 0.1351 -0.086675 0.2447 -0.198825 0.328825 -0.336475 0.084125 -0.13765 0.126175 -0.3059 0.126175 -0.504725 0 -0.188625 -0.03695 -0.341575 -0.110875 -0.458825 -0.073925 -0.11725 -0.1708 -0.214125 -0.2906 -0.2906 -0.119825 -0.076475 -0.254925 -0.136375 -0.4053 -0.1797 -0.1504 -0.04335 -0.302075 -0.0854 -0.455025 -0.1262 -0.214125 -0.056075 -0.401475 -0.1045 -0.562075 -0.145275 -0.160575 -0.0408 -0.3097 -0.089225 -0.44735 -0.1453 -0.13255 -0.0561 -0.23835 -0.136375 -0.317375 -0.2409 -0.079025 -0.1045 -0.118525 -0.253625 -0.118525 -0.44735 0 -0.0357 0.0102 -0.099425 0.030575 -0.1912 0.0204 -0.09175 0.068825 -0.1848 0.1453 -0.279125 0.076475 -0.0943 0.19375 -0.178425 0.351775 -0.25235 0.15805 -0.073925 0.374725 -0.110875 0.650025 -0.110875 0.188625 0 0.3607 0.020375 0.5162 0.061175 0.155475 0.040775 0.2893 0.105775 0.401475 0.195 0.11215 0.089225 0.198825 0.20265 0.26 0.3403 0.061175 0.13765 0.091775 0.305875 0.091775 0.504725Z" stroke-width="0.25"></path>
</svg>