<svg xmlns="http://www.w3.org/2000/svg" fill="none" viewBox="0 0 24 24" id="Git--Streamline-Svg-Logos" height="24" width="24">
  <desc>
    Git Streamline Icon: https://streamlinehq.com
  </desc>
  <path fill="#2f2707" d="M14.33375 10.43315c-0.51525 0 -0.899 0.253 -0.899 0.861875 0 0.458775 0.252875 0.7773 0.87125 0.7773 0.524075 0 0.88005 -0.30885 0.88005 -0.796225 0 -0.5524 -0.318525 -0.84295 -0.8523 -0.84295Zm-1.030175 4.2994c-0.12195 0.149575 -0.243425 0.30865 -0.243425 0.4962 0 0.3744 0.477375 0.487075 1.133175 0.487075 0.543225 0 1.283175 -0.0381 1.283175 -0.543125 0 -0.30025 -0.355975 -0.31875 -0.8058 -0.34695l-1.367125 -0.0932Zm2.772225 -4.2711c0.168325 0.21545 0.346525 0.51525 0.346525 0.94605 0 1.03955 -0.81485 1.6482 -1.994625 1.6482 -0.300025 0 -0.57165 -0.037325 -0.740075 -0.08415l-0.309175 0.496325 0.91775 0.05605c1.62045 0.103325 2.575425 0.15025 2.575425 1.39535 0 1.077325 -0.945725 1.685775 -2.575425 1.685775 -1.69515 0 -2.341375 -0.4308 -2.341375 -1.17065 0 -0.4215 0.187375 -0.645775 0.51515 -0.955375 -0.309175 -0.13065 -0.41205 -0.364725 -0.41205 -0.617725 0 -0.206175 0.102875 -0.393425 0.271725 -0.571525 0.168525 -0.177675 0.355775 -0.355875 0.580575 -0.56185 -0.45885 -0.224825 -0.805475 -0.711875 -0.805475 -1.405025 0 -1.0769 0.71185 -1.816525 2.144525 -1.816525 0.4028 0 0.64645 0.037025 0.861875 0.093625h1.826425v0.7958l-0.861775 0.06565Z" stroke-width="0.25"></path>
  <path fill="#2f2707" d="M18.5851 8.759525c-0.533975 0 -0.842925 -0.309275 -0.842925 -0.843375 0 -0.533325 0.30895 -0.8239 0.842925 -0.8239 0.54325 0 0.8523 0.290575 0.8523 0.8239 0 0.5341 -0.30905 0.843375 -0.8523 0.843375Zm-1.2084 5.628325v-0.739525l0.477825 -0.065325c0.131175 -0.01895 0.1498 -0.046925 0.1498 -0.187675V10.6418c0 -0.102775 -0.028 -0.168625 -0.121925 -0.1965l-0.5057 -0.1781 0.103 -0.75835h1.938875v3.886475c0 0.150125 0.00905 0.168725 0.1499 0.187675l0.4777 0.065325v0.739525H17.3767Z" stroke-width="0.25"></path>
  <path fill="#2f2707" d="M23.750075 14.024775c-0.402925 0.1965 -0.99285 0.374475 -1.52695 0.374475 -1.11445 0 -1.53575 -0.449075 -1.53575 -1.507875v-2.453725c0 -0.05605 0 -0.093625 -0.075225 -0.093625h-0.655475v-0.833575c0.824425 -0.093825 1.152 -0.506 1.254975 -1.526825h0.889875v1.330325c0 0.065325 0 0.093625 0.075 0.093625h1.320425v0.93645h-1.395425v2.238275c0 0.5526 0.131275 0.767825 0.63675 0.767825 0.262575 0 0.533875 -0.065425 0.758675 -0.149675l0.253125 0.824325Z" stroke-width="0.25"></path>
  <path fill="#de4c36" d="M9.87295 11.566975 5.59065 7.285c-0.24645 -0.24665 -0.64645 -0.24665 -0.8932 0l-0.889225 0.889225 1.128025 1.128c0.26215 -0.08855 0.5627 -0.02915 0.7717 0.179825 0.20995 0.2103 0.268925 0.51345 0.1782 0.77645l1.087125 1.087125c0.263 -0.090625 0.566475 -0.031975 0.77655 0.178425 0.293575 0.29345 0.293575 0.7691 0 1.062775 -0.293675 0.2937 -0.76935 0.2937 -1.063125 0 -0.220825 -0.221025 -0.275375 -0.545375 -0.163575 -0.817425l-1.013825 -1.013825 -0.000125 2.66795c0.071575 0.035525 0.13915 0.082775 0.198775 0.142175 0.293575 0.29345 0.293575 0.769125 0 1.063 -0.293675 0.293575 -0.76955 0.293575 -1.0628 0 -0.293575 -0.293875 -0.293575 -0.76955 0 -1.063 0.072525 -0.072425 0.156475 -0.1272 0.246 -0.164V10.70885c-0.089525 -0.036575 -0.17335 -0.091025 -0.246 -0.164 -0.22245 -0.2221 -0.275925 -0.5485 -0.16195 -0.821625l-1.111875 -1.112075L0.43507 11.547175c-0.24675975 0.246875 -0.24675975 0.646875 0 0.893525L4.71735 16.722775c0.24655 0.24665 0.64645 0.24665 0.893325 0l4.262275 -4.262175c0.24665 -0.24675 0.24665 -0.646975 0 -0.893625Z" stroke-width="0.25"></path>
</svg>