<svg xmlns="http://www.w3.org/2000/svg" fill="none" viewBox="0 0 24 24" id="Mongodb--Streamline-Svg-Logos" height="24" width="24">
  <desc>
    Mongodb Streamline Icon: https://streamlinehq.com
  </desc>
  <path fill="#01ec64" d="M2.0716475 9.55805c-0.2386775 -0.2832 -0.4442075 -0.5708 -0.4861975 -0.630525 -0.00442 -0.004425 -0.0110525 -0.004425 -0.01547 0 -0.0419925 0.059725 -0.24752 0.347325 -0.4862 0.630525 -2.0486525 2.6128 0.3226625 4.376075 0.3226625 4.376075l0.0198875 0.013275c0.0176775 0.2721 0.06188 0.6637 0.06188 0.6637h0.1767975s0.0442025 -0.389375 0.0618825 -0.6637l0.0198875 -0.0155c0.0022075 0.002225 2.3735225 -1.76105 0.32487 -4.37385Zm-0.49504 4.33625s-0.1060775 -0.090725 -0.1348075 -0.13715v-0.00445l0.12818 -2.8451c0 -0.00885 0.01326 -0.00885 0.01326 0l0.1281775 2.8451v0.00445c-0.02873 0.046425 -0.13481 0.13715 -0.13481 0.13715Z" stroke-width="0.25"></path>
  <path fill="#001e2b" d="m6.014375 13.31375 -0.98815 -2.413475 -0.002225 -0.00665h-0.768825v0.162225h0.124075c0.037675 0 0.073125 0.01555 0.099725 0.042225 0.026575 0.02665 0.039875 0.062225 0.039875 0.1l-0.02215 2.429025c0 0.07555 -0.062025 0.137775 -0.137375 0.14l-0.1263 0.0022v0.160025h0.748875v-0.160025l-0.07755 -0.0022c-0.075325 -0.002225 -0.137375 -0.06445 -0.137375 -0.14v-2.289025l1.0768 2.59125c0.0155 0.037775 0.05095 0.062225 0.09085 0.062225 0.039875 0 0.075325 -0.02445 0.090825 -0.062225l1.0524 -2.533475 0.015525 2.23125c0 0.077775 -0.06205 0.14 -0.139575 0.1422h-0.079775v0.160025h0.877375v-0.160025h-0.11965c-0.075325 0 -0.137375 -0.064425 -0.139575 -0.14l-0.00665 -2.429c0 -0.077775 0.062025 -0.14 0.137375 -0.142225l0.1285 -0.002225v-0.162225h-0.748875l-0.98815 2.420125Zm6.88995 0.413275c-0.02445 -0.024475 -0.037775 -0.057875 -0.037775 -0.09795v-1.193225c0 -0.22705 -0.066625 -0.40515 -0.199925 -0.53205 -0.131025 -0.1269 -0.3132 -0.19145 -0.53975 -0.19145 -0.317675 0 -0.568675 0.129125 -0.744175 0.3829 -0.002225 0.00445 -0.008875 0.0067 -0.015525 0.0067 -0.0067 0 -0.011125 -0.004475 -0.011125 -0.01115l-0.0822 -0.31835h-0.137725l-0.353175 0.202575v0.111325h0.091075c0.0422 0 0.077725 0.011125 0.102175 0.0334 0.024425 0.022275 0.03775 0.05565 0.03775 0.1024v1.4047c0 0.040075 -0.013325 0.073475 -0.03775 0.097975 -0.02445 0.02445 -0.05775 0.037825 -0.097725 0.037825h-0.088875v0.1625h0.813v-0.1625h-0.08885c-0.039975 0 -0.0733 -0.013375 -0.097725 -0.037825 -0.024425 -0.0245 -0.037775 -0.0579 -0.037775 -0.097975v-0.930525c0 -0.118 0.026675 -0.235975 0.07555 -0.35175 0.051075 -0.113525 0.1266 -0.20925 0.226575 -0.2827 0.09995 -0.073475 0.2199 -0.1091 0.357625 -0.1091 0.1555 0 0.273225 0.048975 0.346525 0.146925 0.0733 0.097975 0.111075 0.22485 0.111075 0.376225v1.148725c0 0.04005 -0.013325 0.073425 -0.037775 0.097925 -0.024425 0.0245 -0.05775 0.03785 -0.097725 0.03785h-0.08885v0.1625h0.813v-0.1625h-0.088825c-0.033325 0.00445 -0.06445 -0.0089 -0.0911 -0.0334Zm7.4279 -2.6517c-0.22475 -0.11965 -0.475925 -0.1817 -0.746925 -0.1817H18.52775v0.16175h0.103575c0.03965 0 0.0749 0.015525 0.11015 0.050975 0.03305 0.03325 0.050675 0.070925 0.050675 0.1108v2.384475c0 0.039875 -0.017625 0.07755 -0.050675 0.1108 -0.03305 0.033225 -0.0705 0.05095 -0.11015 0.05095h-0.103575v0.161775h1.05755c0.271 0 0.522175 -0.062025 0.746925 -0.1817 0.2247 -0.119675 0.4076 -0.296975 0.539775 -0.522975 0.1322 -0.22605 0.2005 -0.498625 0.2005 -0.808875 0 -0.310225 -0.0683 -0.5806 -0.2005 -0.80885 -0.1344 -0.23045 -0.315075 -0.405525 -0.539775 -0.527425Zm0.31505 1.33185c0 0.28365 -0.050675 0.522975 -0.149825 0.715775 -0.09915 0.1928 -0.23135 0.336825 -0.3944 0.429925 -0.163 0.093075 -0.343675 0.1396 -0.537575 0.1396h-0.2137c-0.039675 0 -0.074925 -0.0155 -0.110175 -0.050975 -0.03305 -0.033225 -0.05065 -0.0709 -0.05065 -0.1108v-2.249275c0 -0.0399 0.0154 -0.07535 0.05065 -0.1108 0.03305 -0.03325 0.0705 -0.050975 0.110175 -0.050975h0.2137c0.1939 0 0.374575 0.04655 0.537575 0.1396 0.16305 0.093075 0.29525 0.237125 0.3944 0.429925 0.09915 0.195 0.149825 0.43655 0.149825 0.718Zm2.925025 0.161775c-0.0978 -0.113025 -0.286575 -0.2083 -0.5085 -0.2593 0.306475 -0.1529 0.464025 -0.36785 0.464025 -0.64485 0 -0.1507 -0.03985 -0.285875 -0.11995 -0.401125 -0.079875 -0.1152 -0.193175 -0.2083 -0.33745 -0.27255 -0.1445 -0.064275 -0.313325 -0.0975 -0.5043 -0.0975h-1.197075v0.16175h0.0955c0.039975 0 0.0755 0.015525 0.11105 0.050975 0.033325 0.03325 0.051075 0.070925 0.051075 0.1108v2.384475c0 0.039875 -0.01775 0.07755 -0.051075 0.1108 -0.0333 0.033225 -0.071075 0.05095 -0.11105 0.05095h-0.1044v0.161775h1.29935c0.197625 0 0.38195 -0.033225 0.548575 -0.099725 0.166625 -0.066475 0.299825 -0.163975 0.395425 -0.2925 0.097575 -0.128525 0.146475 -0.285875 0.146475 -0.4676 -0.0022 -0.195 -0.05995 -0.361225 -0.177675 -0.496375Zm-1.4903 1.074775c-0.033325 -0.03325 -0.0511 -0.0709 -0.0511 -0.1108v-1.070375h0.61755c0.217525 0 0.38415 0.055425 0.49965 0.166225 0.1155 0.1108 0.17325 0.25485 0.17325 0.432125 0 0.106375 -0.026775 0.210525 -0.07545 0.305825 -0.0511 0.0975 -0.1268 0.175075 -0.2288 0.2349 -0.100025 0.059825 -0.224375 0.09085 -0.36865 0.09085h-0.455425c-0.03995 0 -0.0755 -0.0155 -0.111025 -0.04875Zm-0.048875 -1.409425v-0.95065c0 -0.0399 0.01555 -0.07535 0.051075 -0.110825 0.033325 -0.033225 0.071075 -0.05095 0.111075 -0.05095h0.293175c0.2109 0 0.36645 0.053175 0.46425 0.1551 0.0976 0.104175 0.1465 0.237125 0.1465 0.401125 0 0.168425 -0.0467 0.3036 -0.13765 0.405525 -0.09115 0.099725 -0.2288 0.150675 -0.4109 0.150675h-0.517525Zm-12.22385 -0.3806c-0.169725 -0.09275 -0.359275 -0.14135 -0.564225 -0.14135 -0.1996 0 -0.38665 0.043975 -0.550975 0.13395l-0.013275 0.0074c-0.169725 0.09275 -0.304175 0.22745 -0.40335 0.397525 -0.099175 0.17005 -0.149875 0.368825 -0.149875 0.58965 0 0.22085 0.0507 0.419625 0.149875 0.589675 0.099175 0.17005 0.233625 0.304775 0.40335 0.397525s0.359275 0.14135 0.56425 0.14135c0.199575 0 0.386625 -0.043975 0.55095 -0.13395l0.013275 -0.0074c0.169725 -0.09275 0.304175 -0.227475 0.40335 -0.397525 0.099175 -0.17005 0.149875 -0.368825 0.149875 -0.589675 0 -0.220825 -0.0507 -0.4196 -0.149875 -0.58965 -0.099175 -0.170075 -0.233625 -0.304775 -0.40335 -0.397525Zm0.163125 0.987175c0 0.27165 -0.066125 0.4925 -0.1984 0.6515 -0.130025 0.159025 -0.30855 0.240725 -0.52895 0.240725 -0.216475 0 -0.392575 -0.078825 -0.521975 -0.232275l-0.007 -0.00845c-0.132275 -0.159 -0.198375 -0.37985 -0.198375 -0.6515 0 -0.2667 0.063725 -0.484425 0.191225 -0.64275l0.00715 -0.008725c0.130025 -0.159025 0.308575 -0.24075 0.528975 -0.24075 0.2204 0 0.398925 0.081725 0.52895 0.24075 0.132275 0.159 0.1984 0.37985 0.1984 0.651475Zm7.6481 -0.987175c-0.169725 -0.09275 -0.359275 -0.14135 -0.56425 -0.14135 -0.199575 0 -0.38665 0.043975 -0.550975 0.13395l-0.013275 0.0074c-0.169725 0.09275 -0.304175 0.22745 -0.40335 0.397525 -0.099175 0.17005 -0.149875 0.368825 -0.149875 0.58965 0 0.22085 0.0507 0.419625 0.149875 0.589675 0.099175 0.17005 0.233625 0.304775 0.40335 0.397525s0.359275 0.14135 0.56425 0.14135c0.199575 0 0.386625 -0.043975 0.550975 -0.13395l0.013275 -0.0074c0.1697 -0.09275 0.30415 -0.227475 0.40335 -0.397525 0.099175 -0.17005 0.14985 -0.368825 0.14985 -0.589675 0 -0.220825 -0.050675 -0.4196 -0.14985 -0.58965 -0.0992 -0.170075 -0.23585 -0.304775 -0.40335 -0.397525Zm0.1631 0.987175c0 0.27165 -0.06615 0.4925 -0.198375 0.6515 -0.13005 0.159025 -0.308575 0.240725 -0.528975 0.240725 -0.2165 0 -0.392575 -0.078825 -0.521975 -0.232275l-0.007 -0.00845c-0.13225 -0.159 -0.198375 -0.37985 -0.198375 -0.6515 0 -0.268875 0.063725 -0.4845 0.191225 -0.64275l0.00715 -0.008725c0.130025 -0.159025 0.30855 -0.24075 0.528975 -0.24075 0.2204 0 0.398925 0.081725 0.528975 0.24075 0.130025 0.159 0.198375 0.37985 0.198375 0.651475Zm-3.31325 -1.128525c-0.1776 0 -0.3396 0.0377 -0.486125 0.11315 -0.1465 0.075425 -0.261925 0.1775 -0.344075 0.3084 -0.0821 0.128675 -0.124275 0.2729 -0.124275 0.425975 0 0.13755 0.03105 0.264025 0.095425 0.377175 0.06215 0.108725 0.146525 0.199675 0.25305 0.2751l-0.317425 0.430425c-0.03995 0.05325 -0.044375 0.124225 -0.015525 0.181925 0.031075 0.0599 0.088775 0.095425 0.155375 0.095425h0.091025c-0.0851 0.0574 -0.153875 0.124975 -0.20245 0.204725l-0.006225 0.01045c-0.0577 0.0954 -0.08655 0.19525 -0.08655 0.2973 0 0.1874 0.08135 0.3427 0.241975 0.4596l0.008825 0.006325c0.164275 0.1176 0.395125 0.1775 0.6859 0.1775 0.202025 0 0.395125 -0.033275 0.5705 -0.097625 0.1725 -0.0625 0.313575 -0.154325 0.419175 -0.2734l0.009225 -0.010575c0.108775 -0.12425 0.164275 -0.275125 0.164275 -0.448175 0 -0.181925 -0.0666 -0.310625 -0.222 -0.43485 -0.13315 -0.1043 -0.341825 -0.15975 -0.60155 -0.15975h-0.887875c-0.001325 0 -0.002675 -0.0008 -0.003525 -0.00145l-0.000925 -0.000775 -0.0004 -0.000925c-0.0005 -0.001425 -0.001175 -0.004125 0.0004 -0.005725l0.23085 -0.3106c0.062175 0.028825 0.119875 0.046575 0.170925 0.057675 0.053275 0.0111 0.1132 0.015525 0.1798 0.015525 0.186475 0 0.355175 -0.0377 0.50165 -0.11315 0.146525 -0.075425 0.264175 -0.177475 0.348525 -0.3084 0.084325 -0.128675 0.1265 -0.272875 0.1265 -0.42595 0 -0.1642 -0.0799 -0.463725 -0.29745 -0.6168 0 -0.001325 0.000825 -0.001875 0.00145 -0.002075l0.0008 -0.00015 0.477225 0.05325v-0.21965H14.84325c-0.11985 -0.0377 -0.24415 -0.0599 -0.3729 -0.0599Zm0.266375 1.388875c-0.084375 0.044375 -0.175375 0.068775 -0.266375 0.068775 -0.148725 0 -0.2797 -0.05325 -0.390675 -0.1575 -0.110975 -0.1043 -0.166475 -0.257375 -0.166475 -0.452625 0 -0.195225 0.0555 -0.348325 0.166475 -0.4526 0.110975 -0.104275 0.24195 -0.157525 0.390675 -0.157525 0.08935 0 0.1746 0.020375 0.2558 0.063075l0.010575 0.0057c0.08435 0.044375 0.15315 0.11315 0.20865 0.204125 0.053275 0.090975 0.082125 0.2041 0.082125 0.337225 0 0.13535 -0.02665 0.248475 -0.082125 0.33725 -0.053275 0.09095 -0.1243 0.159725 -0.20865 0.2041Zm-0.60155 0.81645h0.60155c0.166475 0 0.273025 0.033275 0.34405 0.1043 0.07105 0.070975 0.10655 0.166375 0.10655 0.277325 0 0.16195 -0.064375 0.295075 -0.1931 0.394925 -0.128775 0.09985 -0.3019 0.150875 -0.515 0.150875 -0.186475 0 -0.34185 -0.042175 -0.45505 -0.12205 -0.113225 -0.07985 -0.170925 -0.2019 -0.170925 -0.357175 0 -0.09765 0.02665 -0.1886 0.079925 -0.268475 0.053275 -0.079875 0.117625 -0.137575 0.202 -0.179725Z" stroke-width="0.25"></path>
</svg>