<svg xmlns="http://www.w3.org/2000/svg" fill="none" viewBox="0 0 24 24" id="Mysql--Streamline-Svg-Logos" height="24" width="24">
  <desc>
    Mysql Streamline Icon: https://streamlinehq.com
  </desc>
  <path fill="#00758f" d="m7.240775 14.56925 0.7142 2.3173c0.160425 0.526125 0.22735 0.8934 0.2006 1.10275 0.3906 -1.046125 0.6635 -2.186175 0.81875 -3.42005h0.85875c-0.369225 2.0088 -0.856275 3.468575 -1.4608 4.379225 -0.471 0.701675 -0.987 1.052525 -1.5489 1.052525 -0.149775 0 -0.334475 -0.04525 -0.553675 -0.135125v-0.48425c0.107075 0.015725 0.232725 0.0241 0.377225 0.0241 0.262125 0 0.473375 -0.072625 0.6341 -0.2176 0.192475 -0.176675 0.2888 -0.375225 0.2888 -0.595275 0 -0.1503 -0.075125 -0.4587 -0.2247 -0.925225L6.35 14.56925h0.890775ZM1.7749325 13.14495l1.3081425 3.9912h0.008025l1.316175 -3.9912h1.0753c0.235475 1.979325 0.3745 3.7904 0.417225 5.4319h-0.9066c-0.0319 -1.534525 -0.120275 -2.977475 -0.26475 -4.329125h-0.007975l-1.38055 4.329125h-0.69035L1.277395 14.247725h-0.0080825c-0.101815 1.2981 -0.16587 2.74105 -0.1925825 4.329125H0.25c0.053425 -1.93135 0.1871275 -3.74185 0.4011075 -5.4319h1.123825Z" stroke-width="0.25"></path>
  <path fill="#f29111" d="M16.4292 13.064325c1.407075 0 2.1107 0.899 2.1107 2.69605 0 0.97655 -0.2116 1.714175 -0.6344 2.212525 -0.076225 0.09105 -0.1604 0.1697 -0.249075 0.2426l0.995775 0.49235 -0.000975 -0.00005 -0.35355 0.610525 -1.29675 -0.756625c-0.214975 0.06365 -0.45145 0.095475 -0.709225 0.095475 -0.690875 0 -1.20695 -0.201375 -1.5482 -0.60355 -0.374525 -0.44495 -0.56165 -1.1454 -0.56165 -2.1002 0 -0.971025 0.211175 -1.70585 0.6341 -2.204825 0.38515 -0.4564 0.92305 -0.684275 1.61325 -0.684275Zm-4.308975 0.00795c0.502925 0 0.96025 0.134575 1.372125 0.40275l-0.209225 0.466175c-0.352425 -0.149825 -0.699975 -0.225025 -1.042625 -0.225025 -0.278025 0 -0.4923 0.066925 -0.64165 0.201575 -0.1502 0.133475 -0.243075 0.305275 -0.243075 0.514625 0 0.3217 0.229225 0.60075 0.652425 0.8365 0.11385 0.0619 0.26215 0.14445 0.414525 0.23l0.031575 0.01775c0.005275 0.00295 0.01055 0.005925 0.0158 0.008875l0.03165 0.0178c0.005275 0.002975 0.01055 0.00595 0.0158 0.0089l0.031575 0.0178c0.3204 0.180625 0.62185 0.353025 0.62185 0.353025 0.4232 0.3004 0.6341 0.62065 0.6341 1.148175 0 0.460675 -0.1688 0.83885 -0.5053 1.13475 -0.336775 0.294575 -0.7892 0.442275 -1.355775 0.442275 -0.5299 0 -1.04345 -0.169975 -1.540925 -0.507175l0.232725 -0.4666c0.4281 0.21455 0.8155 0.3217 1.163325 0.3217 0.326275 0 0.58165 -0.0728 0.7664 -0.21665 0.184325 -0.144875 0.294825 -0.34695 0.294825 -0.60325 0 -0.322525 -0.224325 -0.5982 -0.635925 -0.829475 -0.106875 -0.058825 -0.243775 -0.1356 -0.385325 -0.215625l-0.031525 -0.017825c-0.0579 -0.03275 -0.116275 -0.065875 -0.173375 -0.09835l-0.031025 -0.017625c-0.277875 -0.158075 -0.51815 -0.296175 -0.51815 -0.296175 -0.411475 -0.30095 -0.61775 -0.62385 -0.61775 -1.1559 0 -0.440025 0.153825 -0.7957 0.4611 -1.0663 0.307975 -0.271125 0.7053 -0.4067 1.19185 -0.4067Zm8.073325 0.07265v4.763725h1.709175v0.668175h-2.576V13.144925h0.866825ZM22.8525 17.910725v0.1129h-0.187975v0.55265h-0.143625v-0.55265h-0.19525v-0.1129H22.8525Zm0.346975 0 0.1804 0.45365 0.16575 -0.45365h0.203625v0.66555h-0.135375V18.06975l-0.188675 0.506525h-0.097625l-0.18895 -0.506525h-0.007275v0.506525h-0.1281v-0.66555h0.196225ZM16.34065 13.73235c-0.8292 0 -1.244 0.684325 -1.244 2.0521 0 0.783475 0.109925 1.351675 0.32935 1.70575 0.2032 0.32775 0.521525 0.49125 0.95495 0.49125 0.8292 0 1.244 -0.68965 1.244 -2.068375 0 -0.772525 -0.109925 -1.3358 -0.329075 -1.690025 -0.2035 -0.327025 -0.521675 -0.4907 -0.955225 -0.4907Z" stroke-width="0.25"></path>
  <path fill="#00758f" d="M14.16705 4.33555c0.275075 -0.6759 1.236875 -0.164075 1.61015 0.072075 0.091475 0.059025 0.19635 0.18385 0.30125 0.229975 0.163625 0.00645 0.327125 0.0192 0.491025 0.026075 0.307425 0.072225 0.595375 0.13125 0.8376 0.26925 1.12585 0.663 1.8587 1.338625 2.533225 2.45455 0.14405 0.236425 0.216075 0.4922 0.333825 0.748 0.16335 0.381275 0.346975 0.781475 0.536625 1.14205 0.0849 0.170925 0.150625 0.361 0.268525 0.505325 0.046025 0.066 0.176775 0.08545 0.25495 0.1249 0.2161 0.11185 0.4779 0.19675 0.6811 0.32805 0.379575 0.236625 0.74655 0.518625 1.080125 0.8073 0.124325 0.111475 0.209075 0.269225 0.327525 0.3871v0.0595c-0.10515 0.03225 -0.209925 0.0653 -0.3148 0.09175 -0.2291 0.0589 -0.432025 0.045575 -0.65425 0.104475 -0.13735 0.0398 -0.307825 0.092375 -0.451875 0.1057 0.006425 0.006475 0.013275 0.013425 0.013275 0.013425 0.08475 0.2421 0.5432 0.439025 0.75285 0.5838 0.254675 0.183775 0.490625 0.406725 0.68055 0.66265 0.065575 0.065325 0.131175 0.124775 0.1965 0.1899 0.045575 0.066 0.05845 0.15135 0.1046 0.21025v0.019875c-0.051125 -0.01805 -0.087875 -0.05245 -0.12275 -0.08845l-0.0208 -0.021675c-0.02075 -0.02165 -0.04175 -0.0428 -0.065675 -0.0603 -0.144475 -0.0987 -0.28795 -0.21675 -0.432425 -0.3085 -0.2484 -0.157575 -0.5365 -0.249075 -0.7916 -0.40725 -0.144175 -0.091875 -0.281675 -0.1965 -0.41915 -0.30155 -0.1246 -0.092125 -0.2618 -0.269075 -0.340125 -0.400325 -0.04615 -0.0725 -0.05245 -0.15775 -0.105175 -0.210175 0.00945 -0.087625 0.089725 -0.1137 0.1707 -0.135075l0.018675 -0.0049c0.027925 -0.007275 0.055275 -0.0145 0.07915 -0.024075 0.340275 -0.1445 0.746 -0.196925 1.2699 -0.183775 -0.019725 -0.131575 -0.347125 -0.29545 -0.4516 -0.374225 -0.209775 -0.1512 -0.431875 -0.30895 -0.654375 -0.44655 -0.1179 -0.072075 -0.321125 -0.124675 -0.45175 -0.18355 -0.176775 -0.07225 -0.569625 -0.14445 -0.667525 -0.28205 -0.166375 -0.2169 -0.2859 -0.475625 -0.40195 -0.737l-0.0316 -0.071325c-0.010525 -0.023775 -0.02105 -0.04755 -0.0316 -0.071275 -0.1372 -0.314725 -0.30755 -0.64285 -0.445025 -0.9651 -0.0719 -0.1572 -0.1049 -0.295175 -0.18365 -0.445925 -0.4776 -0.925225 -1.184575 -1.69985 -2.04175 -2.24465 -0.281675 -0.17725 -0.595775 -0.3413 -0.942475 -0.4528 -0.1965 -0.0593 -0.4323 -0.0265 -0.641675 -0.072075h-0.13775c-0.117625 -0.033075 -0.2158 -0.15775 -0.30755 -0.223525 -0.20265 -0.13755 -0.405575 -0.229975 -0.64795 -0.328125 -0.0849 -0.0394 -0.3274 -0.131125 -0.412 -0.0589 -0.05245 0.013175 -0.079025 0.03295 -0.0919 0.08555 -0.05215 0.078525 -0.0063 0.196725 0.02615 0.2691 0.098325 0.209775 0.235675 0.334425 0.360275 0.511675 0.1109 0.1572 0.248675 0.33445 0.327275 0.5054 0.169625 0.3674 0.24865 0.774475 0.40585 1.141875 0.058325 0.138125 0.150475 0.295325 0.235375 0.42 0.0719 0.09885 0.20265 0.170375 0.242225 0.2956 0.0789 0.13125 -0.118025 0.5644 -0.163625 0.701975 -0.170475 0.53825 -0.137475 1.2864 0.058875 1.753 0.0035 0.00815 0.007 0.01635 0.010475 0.0246l0.010475 0.0249c0.071675 0.170875 0.148425 0.354875 0.33905 0.402675 0.01315 -0.013025 0 -0.006175 0.026 -0.013025 0.046175 -0.36115 0.059175 -0.708925 0.18365 -0.991475 0.071875 -0.17665 0.2155 -0.30155 0.313975 -0.445775 0.065575 0.039275 0.065575 0.157775 0.10475 0.23615 0.085175 0.203325 0.176625 0.426275 0.281675 0.6302 0.2155 0.42 0.458025 0.82715 0.732825 1.194525 0.092025 0.131175 0.22265 0.27565 0.340425 0.39385 0.05245 0.04575 0.111175 0.0722 0.150625 0.131075h0.01285v0.019825c-0.19635 -0.0724 -0.320825 -0.275525 -0.47745 -0.394125 -0.294825 -0.222925 -0.64795 -0.557725 -0.851175 -0.878975 -0.085025 -0.1844 -0.176925 -0.36115 -0.268525 -0.54465v-0.013275c-0.03915 0.052425 -0.026 0.104475 -0.045575 0.183775 -0.08505 0.32795 -0.0196 0.702075 -0.314125 0.82 -0.33385 0.138175 -0.582925 -0.222925 -0.6874 -0.386975 -0.333975 -0.54465 -0.425425 -1.463425 -0.189925 -2.2051 0.0523 -0.1642 0.05945 -0.3611 0.150775 -0.4922 -0.019725 -0.1185 -0.11105 -0.1509 -0.163925 -0.223525 -0.0916 -0.1241 -0.17005 -0.268675 -0.2418 -0.406525 -0.13775 -0.26925 -0.2358 -0.590925 -0.3404 -0.87965 -0.046025 -0.117925 -0.059175 -0.2363 -0.10505 -0.3479 -0.078175 -0.1704 -0.222375 -0.341325 -0.33355 -0.492075 -0.150625 -0.21665 -0.589225 -0.6365 -0.412425 -1.06335Zm2.146775 1.285825c0.017475 0.017525 0.0386 0.032875 0.06045 0.04795l0.02635 0.0181c0.035125 0.024275 0.0691 0.049925 0.089975 0.08485 0.033 0.046125 0.039175 0.0917 0.07875 0.137975 0 0.157775 -0.04575 0.26265 -0.13805 0.328 0 0 -0.006275 0.006875 -0.012725 0.013325 -0.0523 -0.105175 -0.098175 -0.209775 -0.1509 -0.314825 -0.0649 -0.0917 -0.15665 -0.164475 -0.2095 -0.269225h-0.012725v-0.013175c0.079025 -0.0195 0.157325 -0.032975 0.268375 -0.032975Z" stroke-width="0.25"></path>
</svg>