<svg xmlns="http://www.w3.org/2000/svg" fill="none" viewBox="0 0 96 96" id="Nodejs--Streamline-Svg-Logos" height="24" width="24">
  <desc>
    Nodejs Streamline Icon: https://streamlinehq.com
  </desc>
  <path fill="#539e43" d="M47.4902 76.7803c-.3187 0-.6162-.085-.8924-.2338l-2.826-1.6785c-.4249-.2338-.2124-.3188-.0849-.3612.5736-.1913.6799-.2338 1.2748-.5737.0638-.0425.1487-.0213.2125.0212l2.1673 1.2961c.085.0425.1912.0425.2549 0l8.4779-4.9082c.085-.0425.1275-.1275.1275-.2337v-9.7952c0-.1063-.0425-.1913-.1275-.2338l-8.4779-4.8869c-.085-.0425-.1912-.0425-.2549 0l-8.4779 4.8869c-.085.0425-.1275.1488-.1275.2338v9.7952c0 .085.0425.1912.1275.2337l2.316 1.3386c1.2536.6374 2.0398-.1062 2.0398-.8499v-9.6677c0-.1275.1062-.255.255-.255h1.0836c.1275 0 .255.1062.255.255v9.6677c0 1.6786-.9137 2.656-2.5073 2.656-.4886 0-.8711 0-1.9547-.5312l-2.2311-1.2749c-.5524-.3187-.8924-.9136-.8924-1.5511v-9.7952c0-.6374.34-1.2324.8924-1.5511l8.4779-4.9082c.5312-.2975 1.2536-.2975 1.7848 0l8.4779 4.9082c.5524.3187.8924.9137.8924 1.5511v9.7952c0 .6375-.34 1.2324-.8924 1.5511l-8.4779 4.9082c-.2762.1275-.5949.1913-.8924.1913Zm2.6135-6.7356c-3.7184 0-4.4833-1.6998-4.4833-3.1446 0-.1275.1062-.255.255-.255h1.1049c.1274 0 .2337.085.2337.2125.17 1.1261.6587 1.6785 2.9109 1.6785 1.7848 0 2.5497-.4037 2.5497-1.3598 0-.5525-.2124-.9562-2.9959-1.2324-2.316-.2337-3.7608-.7437-3.7608-2.5922 0-1.7211 1.4448-2.741 3.8671-2.741 2.7197 0 4.0583.9349 4.2283 2.9747 0 .0638-.0213.1275-.0638.1912-.0425.0425-.1062.085-.17.085h-1.1049c-.1062 0-.2124-.085-.2337-.1912-.255-1.1686-.9136-1.5511-2.6559-1.5511-1.9548 0-2.1886.68-2.1886 1.1899 0 .6162.2763.8074 2.911 1.1474 2.6134.3399 3.8458.8286 3.8458 2.6559-.0212 1.8698-1.5511 2.9322-4.2495 2.9322Z"></path>
  <path fill="#333333" d="M21.1854 38.4702c0-.3824-.2125-.7436-.5525-.9349l-9.009-5.1844c-.1488-.085-.3187-.1275-.4887-.1488h-.085c-.17 0-.34.0638-.4887.1488l-9.00906 5.1844C1.21248 37.7266 1 38.0878 1 38.4702l.02125 13.9385c0 .1913.10624.3825.27622.4675.16998.1062.38246.1062.53119 0l5.35443-3.0597c.33997-.1912.55244-.5524.55244-.9349v-6.523c0-.3825.21248-.7437.55244-.9349l2.27353-1.3174c.17-.1062.3612-.1487.5524-.1487.1913 0 .3825.0425.5312.1487l2.2735 1.3174c.34.1912.5525.5524.5525.9349v6.523c0 .3825.2124.7437.5524.9349l5.3544 3.0597c.17.1062.3825.1062.5525 0 .17-.085.2762-.2762.2762-.4675l-.0212-13.9385Z"></path>
  <path fill="#333333" d="M64.4884 19.2837c-.1699-.085-.3824-.085-.5312 0-.1699.1063-.2762.2762-.2762.4675v13.811c0 .1275-.0637.255-.1912.34-.1275.0637-.255.0637-.3825 0l-2.2522-1.2962c-.34-.1912-.7437-.1912-1.0837 0l-9.009 5.2057c-.34.1913-.5524.5525-.5524.9349v10.3902c0 .3824.2124.7437.5524.9349l9.009 5.2057c.34.1912.7437.1912 1.0837 0l9.009-5.2057c.34-.1912.5525-.5525.5525-.9349v-25.901c0-.4037-.2125-.7649-.5525-.9562l-5.3757-2.9959Zm-.8286 26.4322c0 .1062-.0425.1912-.1275.2337l-3.0809 1.7848c-.085.0425-.1913.0425-.2763 0l-3.0809-1.7848c-.085-.0425-.1275-.1487-.1275-.2337v-3.5696c0-.1063.0425-.1912.1275-.2337l3.0809-1.7849c.085-.0425.1913-.0425.2763 0l3.0809 1.7849c.085.0425.1275.1487.1275.2337v3.5696Z"></path>
  <path fill="#333333" d="M94.4683 42.0616c.34-.1912.5312-.5524.5312-.9349v-2.5285c0-.3824-.2124-.7437-.5312-.9349l-8.9453-5.1844c-.3399-.1913-.7436-.1913-1.0836 0l-9.009 5.2057c-.34.1912-.5525.5524-.5525.9349v10.3901c0 .3825.2125.7437.5525.9349l8.9453 5.0995c.3399.1912.7436.1912 1.0624 0l5.4181-3.0172c.17-.085.2762-.2762.2762-.4675 0-.1912-.1062-.3824-.2762-.4674l-9.0515-5.2057c-.17-.1062-.2762-.2762-.2762-.4675v-3.2509c0-.1912.1062-.3824.2762-.4674l2.8259-1.6148c.17-.1063.3825-.1063.5525 0l2.8259 1.6148c.17.1062.2763.2762.2763.4674v2.5498c0 .1912.1062.3824.2762.4674.17.1063.3824.1063.5524 0l5.3544-3.1234Z"></path>
  <path fill="#539e43" d="M84.8434 41.5724c.0638-.0425.1488-.0425.2125 0l1.7211.9986c.0637.0425.1062.1063.1062.1913v1.9973c0 .085-.0425.1487-.1062.1912l-1.7211.9986c-.0637.0425-.1487.0425-.2125 0l-1.721-.9986c-.0638-.0425-.1063-.1062-.1063-.1912v-1.9973c0-.085.0425-.1488.1063-.1913l1.721-.9986Z"></path>
  <path fill="url(#a)" d="M36.2501 32.5211c-.34-.1912-.7437-.1912-1.0837 0l-8.9453 5.1632c-.3399.1912-.5312.5525-.5312.9349v10.3477c0 .3824.2125.7436.5312.9349l8.9453 5.1632c.34.1912.7437.1912 1.0837 0l8.9453-5.1632c.3399-.1913.5312-.5525.5312-.9349V38.6192c0-.3824-.2125-.7437-.5312-.9349l-8.9453-5.1632Z"></path>
  <mask id="b" width="21" height="24" x="25" y="32" maskUnits="userSpaceOnUse" style="mask-type:luminance">
    <path fill="#ffffff" d="M36.2506 32.5209c-.34-.1913-.7437-.1913-1.0837 0l-8.9453 5.1632c-.3399.1912-.5312.5524-.5312.9349v10.3476c0 .3825.2125.7437.5312.9349l8.9453 5.1632c.34.1912.7437.1912 1.0837 0l8.9453-5.1632c.3399-.1912.5311-.5524.5311-.9349V38.619c0-.3825-.2124-.7437-.5311-.9349l-8.9453-5.1632Z"></path>
  </mask>
  <g mask="url(#b)">
    <path fill="url(#c)" d="m45.2168 37.684-8.9878-5.1632c-.085-.0425-.1912-.085-.2762-.1062L25.8813 49.6677c.085.1063.1913.1912.2975.255l8.9878 5.1632c.255.1487.5525.1912.8287.1062l9.4552-17.2956c-.0637-.085-.1487-.1488-.2337-.2125Z"></path>
  </g>
  <mask id="d" width="21" height="24" x="25" y="32" maskUnits="userSpaceOnUse" style="mask-type:luminance">
    <path fill="#ffffff" d="M36.2506 32.5209c-.34-.1913-.7437-.1913-1.0837 0l-8.9453 5.1632c-.3399.1912-.5312.5524-.5312.9349v10.3476c0 .3825.2125.7437.5312.9349l8.9453 5.1632c.34.1912.7437.1912 1.0837 0l8.9453-5.1632c.3399-.1912.5311-.5524.5311-.9349V38.619c0-.3825-.2124-.7437-.5311-.9349l-8.9453-5.1632Z"></path>
  </mask>
  <g mask="url(#d)">
    <path fill="url(#e)" fill-rule="evenodd" d="M45.2379 49.9015c.255-.1487.4462-.4037.5312-.6799l-9.8589-16.8282c-.255-.0425-.5312-.0213-.765.1274l-8.924 5.142 9.6252 17.5506c.1275-.0212.2762-.0637.4037-.1275l8.9878-5.1844Z" clip-rule="evenodd"></path>
    <path fill="url(#f)" fill-rule="evenodd" d="m45.237 49.9016-8.9666 5.1632c-.1275.0638-.255.1063-.4037.1275l.17.3187 9.9439-5.7581v-.1275l-.2549-.425c-.0425.2975-.2338.5525-.4887.7012Z" clip-rule="evenodd"></path>
    <path fill="url(#g)" fill-rule="evenodd" d="m45.237 49.9016-8.9666 5.1632c-.1275.0638-.255.1063-.4037.1275l.17.3187 9.9439-5.7581v-.1275l-.2549-.425c-.0425.2975-.2338.5525-.4887.7012Z" clip-rule="evenodd"></path>
  </g>
  <defs>
    <linearGradient id="a" x1="1391.96" x2="411.428" y1="431.614" y2="1972.25" gradientUnits="userSpaceOnUse">
      <stop stop-color="#41873f"></stop>
      <stop offset=".329" stop-color="#418b3d"></stop>
      <stop offset=".635" stop-color="#419637"></stop>
      <stop offset=".932" stop-color="#3fa92d"></stop>
      <stop offset="1" stop-color="#3fae2a"></stop>
    </linearGradient>
    <linearGradient id="c" x1="872.767" x2="3328.34" y1="1291.42" y2="-42.693" gradientUnits="userSpaceOnUse">
      <stop offset=".138" stop-color="#41873f"></stop>
      <stop offset=".403" stop-color="#54a044"></stop>
      <stop offset=".714" stop-color="#66b848"></stop>
      <stop offset=".908" stop-color="#6cc04a"></stop>
    </linearGradient>
    <linearGradient id="e" x1="-59.571" x2="2010.32" y1="1174.28" y2="1174.28" gradientUnits="userSpaceOnUse">
      <stop offset=".092" stop-color="#6cc04a"></stop>
      <stop offset=".286" stop-color="#66b848"></stop>
      <stop offset=".597" stop-color="#54a044"></stop>
      <stop offset=".862" stop-color="#41873f"></stop>
    </linearGradient>
    <linearGradient id="f" x1="-1014.57" x2="1055.32" y1="366.467" y2="366.467" gradientUnits="userSpaceOnUse">
      <stop offset=".092" stop-color="#6cc04a"></stop>
      <stop offset=".286" stop-color="#66b848"></stop>
      <stop offset=".597" stop-color="#54a044"></stop>
      <stop offset=".862" stop-color="#41873f"></stop>
    </linearGradient>
    <linearGradient id="g" x1="1356.88" x2="832.494" y1="-1282.77" y2="1465" gradientUnits="userSpaceOnUse">
      <stop stop-color="#41873f"></stop>
      <stop offset=".329" stop-color="#418b3d"></stop>
      <stop offset=".635" stop-color="#419637"></stop>
      <stop offset=".932" stop-color="#3fa92d"></stop>
      <stop offset="1" stop-color="#3fae2a"></stop>
    </linearGradient>
  </defs>
</svg>